<?xml version="1.0" encoding="UTF-8" standalone="no"?>
<svg
   id="Layer_1"
   data-name="Layer 1"
   viewBox="0 0 205.22356 212.37989"
   version="1.1"
   sodipodi:docname="Logo nero.svg"
   width="205.22356"
   height="212.37988"
   inkscape:export-filename="Logo nero.png"
   inkscape:export-xdpi="7.0167384"
   inkscape:export-ydpi="7.0167384"
   xmlns:inkscape="http://www.inkscape.org/namespaces/inkscape"
   xmlns:sodipodi="http://sodipodi.sourceforge.net/DTD/sodipodi-0.dtd"
   xmlns="http://www.w3.org/2000/svg"
   xmlns:svg="http://www.w3.org/2000/svg">
  <sodipodi:namedview
     id="namedview5"
     pagecolor="#ffffff"
     bordercolor="#000000"
     borderopacity="0.25"
     inkscape:showpageshadow="2"
     inkscape:pageopacity="0.0"
     inkscape:pagecheckerboard="0"
     inkscape:deskcolor="#d1d1d1" />
  <defs
     id="defs1">
    <style
       id="style1">.cls-1,.cls-2,.cls-3{isolation:isolate;}.cls-2,.cls-3{font-size:22px;font-family:Optima-Bold, Optima;font-weight:700;}.cls-3{letter-spacing:-0.04em;}.cls-4,.cls-5{stroke:#000;stroke-miterlimit:10;}.cls-5{stroke-width:7px;}</style>
  </defs>
  <path
     d="m 116.38844,113.29988 c 0,0 0,0 0,0 a 17.05,17.05 0 0 0 -13.39,-27.659998 h -5.46 c 0,0 0,0 0,0 v -3.4 a 2.23,2.23 0 0 0 -2.26,-2.23 h -5.23 a 2.08,2.08 0 0 0 -2.05,2.07 v 3.54 c 0,0 0,0 0,0 h -2.77 c 0,0 0,0 0,0 v -3.19 a 2.43,2.43 0 0 0 -2.46,-2.42 h -4.21 a 2.89,2.89 0 0 0 -2.89,2.9 v 2.72 c 0,0 0,0 0,0 h -4.32 c 0,0 0,0 0,0 v 9.48 c 0,0 0,0 0,0 h 4.29 v 0 14.999998 0 h -4.29 c 0,0 0,0 0,0 v 9.48 c 0,0 0,0 0,0 h 4.29 c 0,0 0,0 0,0 v 15 h -4.29 c 0,0 0,0 0,0 v 9.48 h 4.29 v 3.12 a 2.49,2.49 0 0 0 2.49,2.5 h 4.45 a 2.59,2.59 0 0 0 2.59,-2.59 v -3 h 2.83 v 3.72 a 1.9,1.9 0 0 0 1.9,1.9 h 5.31 a 2.32,2.32 0 0 0 2.32,-2.32 v -3.3 h 8.82 a 17.25,17.25 0 0 0 17.32,-18 17,17 0 0 0 -7.28,-12.8 z m -13.57,-3.07 h -17.59 c 0,0 0,0 0,0 V 95.229882 c 0,0 0,0 0,0 h 17.77 c 2.86,0 3.7,2.72 3.58,6.999998 -0.12,4.1 0,7.71 -3.75,8.08 z m -17.59,9.54 h 21.24 c 1.86,0 4.5,3.42 4.62,7.52 0.12,4.25 -3.07,7.39 -4.45,7.53 h -21.41 v -15 c 0,0 -0.02,-0.05 0,-0.05 z"
     id="path3" />
  <path
     class="cls-4"
     d="m 26.69844,112.00988 c 0,0.78 0.08,1.57 0.12,2.36 0,0.19 0,0.39 0,0.58 l 0.05,0.59 0.05,0.59 v 0.3 0.29 a 68.65,68.65 0 0 0 1.6,9.33 c 0.36,1.54 0.8,3.07 1.27,4.58 0.25,0.75 0.48,1.51 0.76,2.25 0.13,0.38 0.25,0.75 0.4,1.12 l 0.42,1.12 c 0.58,1.47 1.21,2.94 1.89,4.37 0.33,0.72 0.7,1.43 1,2.14 0.18,0.36 0.37,0.7 0.56,1.05 0.19,0.35 0.37,0.71 0.57,1 a 71.56,71.56 0 0 0 11.61,15.33 l 0.85,0.85 0.86,0.83 c 0.57,0.57 1.17,1.09 1.76,1.64 l 0.9,0.78 0.45,0.4 0.47,0.38 0.92,0.77 0.94,0.74 0.48,0.37 0.48,0.36 1,0.72 c 0.65,0.46 1.3,0.94 2,1.38 1.32,0.91 2.68,1.75 4.06,2.57 l 1,0.6 0.52,0.29 0.53,0.29 c 0.7,0.39 1.42,0.74 2.14,1.11 1.44,0.71 2.89,1.39 4.38,2 0.74,0.32 1.49,0.6 2.24,0.89 l 1.13,0.41 0.57,0.21 0.57,0.19 1.14,0.38 1.15,0.36 0.58,0.18 0.58,0.16 1.16,0.33 1.17,0.29 0.59,0.15 0.59,0.14 1.17,0.26 1.19,0.24 0.59,0.12 0.59,0.11 1.19,0.2 c 0.4,0.07 0.8,0.12 1.2,0.18 l 1.19,0.17 a 74,74 0 0 0 9.64,0.59 h 1.21 1.2 0.61 0.6 l 1.21,-0.08 c 1.6,-0.12 3.21,-0.27 4.81,-0.5 a 73,73 0 0 0 9.47,-2 72.19,72.19 0 0 0 17.75,-7.6 73,73 0 0 0 26.57,-27.52 72.34,72.34 0 0 0 6.28,-53.939998 v 0 c -1.13,-5.7 1.31,-15.16 6.1,-17.38 4.45,-2.06 12,1.84 18.58,-1.69 6.24,-3.37 10,-10.29 11,-17.3 1,-7.01 -0.2,-14.16 -1.87,-21 -1.81,3.59 -5.23,6.12 -8.86,7.86 -3.63,1.74 -7.53,2.79 -11.28,4.25 -3.75,1.46 -7.43,3.4 -10,6.5 a 20,20 0 0 0 -4,9.22 c -0.61,3.33 0,7.15 0.66,10.64 a 29.64,29.64 0 0 1 7.51,-6.1 c 16.51,-8.44 20,-15.2 20.56,-16.76 -2.58,7.45 -8.18,11.22 -13,14.2 l -2.47,1.55 c -4.16,2.23 -8.35,4.79 -11.35,8.48 a 16.7,16.7 0 0 0 -4,10.57 c -0.53,-1.37 -1.1,-2.72 -1.71,-4 a 69.41,69.41 0 0 0 -4.59,-8.38 70.61,70.61 0 0 0 -13.87,-15.92 l -3.11,-3 c -6,-5.83 -13,-13.07 -14.4,-24.71 0.4,2.49 3.32,13.41 24.66,30.82 5.2,4.25 9,11.24 9,11.24 2.12,-4.86 4.14,-10.24 4.29,-15.27 a 29.79,29.79 0 0 0 -2.78,-14.82 c -2.75,-5.32 -7.51,-9.31 -12.51,-12.61 -5,-3.3 -10.35,-6.07 -15.09,-9.73 -4.74,-3.66 -8.92,-8.4200002 -10.42,-14.2200002 -4.59,9.5600002 -8.67,19.5600002 -9.33,30.0600002 -0.66,10.5 2.6,21.78 10.6,28.64 8.42,7.2 22.07,4.41 28.22,8.34 a 16.44,16.44 0 0 1 5,5.61 c 0.8,1.56 1.54,3.16 2.22,4.78 a 70.85,70.85 0 0 1 3,8.73 70.89,70.89 0 0 1 2.56,18.229998 v 1.17 c 0,0.19 0,0.38 0,0.57 v 0.58 0.57 c 0,0.2 0,0.39 0,0.58 l -0.06,1.15 c 0,0.38 0,0.76 -0.08,1.14 -0.08,0.38 -0.05,0.77 -0.08,1.15 l -0.12,1.14 -0.06,0.58 -0.07,0.57 -0.14,1.14 -0.17,1.13 -0.09,0.57 -0.1,0.57 -0.2,1.13 -0.22,1.12 -0.11,0.57 -0.13,0.56 -0.25,1.11 -0.32,1.07 -0.14,0.55 -0.15,0.56 -0.31,1.1 -0.34,1.1 -0.16,0.54 -0.18,0.55 -0.37,1.09 -0.39,1.08 -0.19,0.53 -0.21,0.54 -0.41,1.07 -0.44,1.06 -0.22,0.52 -0.23,0.53 -0.47,1 -0.49,1 c -0.08,0.17 -0.16,0.35 -0.25,0.52 l -0.26,0.51 c -0.17,0.34 -0.34,0.68 -0.52,1 -0.36,0.67 -0.71,1.35 -1.09,2 a 70.61,70.61 0 0 1 -25.29,25.91 l -1,0.58 -1,0.56 -0.5,0.28 -0.5,0.27 -1,0.53 c -0.68,0.34 -1.36,0.69 -2,1 -0.35,0.16 -0.69,0.33 -1,0.48 l -1,0.46 c -0.34,0.16 -0.7,0.3 -1,0.45 l -1.06,0.43 c -0.71,0.27 -1.42,0.55 -2.14,0.8 -1.44,0.52 -2.89,1 -4.36,1.39 a 70,70 0 0 1 -9.13,2.01 c -1.51,0.24 -3,0.39 -4.55,0.52 l -1.15,0.08 h -0.57 -0.57 l -1.14,0.05 h -1.15 a 70,70 0 0 1 -26.87,-4.75 c -1.43,-0.55 -2.83,-1.17 -4.22,-1.81 -0.69,-0.34 -1.38,-0.66 -2.06,-1 l -0.51,-0.26 -0.51,-0.27 -1,-0.55 c -1.34,-0.75 -2.67,-1.53 -4,-2.36 -0.66,-0.41 -1.29,-0.85 -1.93,-1.28 l -0.94,-0.66 -0.47,-0.33 -0.46,-0.34 -0.93,-0.69 -0.91,-0.71 -0.45,-0.36 -0.45,-0.37 -0.89,-0.73 -0.87,-0.75 c -0.3,-0.25 -0.58,-0.51 -0.87,-0.77 l -0.85,-0.77 -0.84,-0.8 c -1.11,-1.07 -2.2,-2.16 -3.23,-3.3 -0.53,-0.57 -1,-1.15 -1.54,-1.73 l -0.74,-0.89 -0.38,-0.44 -0.36,-0.45 -0.72,-0.91 -0.7,-0.92 -0.35,-0.46 -0.34,-0.47 -0.68,-0.94 -0.65,-1 -0.33,-0.48 -0.32,-0.49 -0.63,-1 -0.61,-1 a 71.35,71.35 0 0 1 -7.55,-17 73.92,73.92 0 0 1 -2.08,-9.12 l -0.05,-0.29 v -0.29 l -0.08,-0.58 -0.09,-0.58 c 0,-0.19 -0.05,-0.39 -0.07,-0.58 -0.1,-0.78 -0.2,-1.55 -0.27,-2.33 0,-0.39 -0.07,-0.78 -0.1,-1.17 l -0.09,-1.18 c 0,-0.19 0,-0.39 0,-0.58 v -0.59 l -0.05,-1.18 c -0.16,1.66 -0.19,3.23 -0.13,4.86 z m 170.44,-64.839998 c 0,-0.11 0.07,-0.22 0.11,-0.34 0.04,-0.12 -0.03,0.12 -0.11,0.34 z"
     id="path4" />
  <path
     class="cls-5"
     d="m 110.64844,22.379882 a 90.47,90.47 0 0 0 -29.87,0 92,92 0 0 0 -28.44,9.82 c -2.23,1.2 -4.39,2.51 -6.51,3.89 -2.12,1.38 -4.19,2.85 -6.19,4.4 -2,1.55 -3.94,3.19 -5.81,4.91 l -0.7,0.64 -0.69,0.65 -1.37,1.33 -1.33,1.36 c -0.45,0.45 -0.87,0.92 -1.31,1.38 q -2.59,2.79 -5,5.79 c -1.57,2 -3,4.07 -4.46,6.19 -1.46,2.12 -2.73,4.3 -4,6.53 -1.27,2.23 -2.36,4.52 -3.4,6.85 a 94.21,94.21 0 0 0 -4.9699997,14.47 c -0.66,2.47 -1.2,5 -1.64,7.48 0,0.32 -0.12,0.63 -0.16,1 l -0.15,0.939998 c -0.1,0.64 -0.2,1.27 -0.28,1.9 l -0.24,1.9 -0.2,1.91 a 93.8,93.8 0 0 0 2.07,30.46 q 0.88,3.74 2.07,7.4 c 0.79,2.44 1.69,4.84 2.6799997,7.21 a 94.27,94.27 0 0 0 7.06,13.65 c 1.35,2.18 2.82,4.29 4.35,6.35 1.53,2.06 3.14,4.06 4.83,6 1.69,1.94 3.48,3.78 5.32,5.57 0.46,0.44 0.92,0.89 1.39,1.32 l 1.42,1.3 1.46,1.27 0.73,0.62 0.74,0.61 a 94.28,94.28 0 0 0 26.55,15.34 95.38,95.38 0 0 0 30,6 c 2.56,0.08 5.12,0.08 7.68,0 2.56,-0.08 5.12,-0.35 7.66,-0.67 l 1.9,-0.26 1.89,-0.31 c 0.64,-0.09 1.26,-0.22 1.89,-0.34 l 1,-0.18 0.93,-0.2 c 2.51,-0.54 5,-1.17 7.44,-1.91 a 94,94 0 0 0 49.01,-34.94 c 1.49,-2.06 2.9,-4.17 4.21,-6.34 1.31,-2.17 2.54,-4.4 3.67,-6.67 1.13,-2.27 2.16,-4.58 3.1,-6.93 l 0.35,-0.88 0.33,-0.89 0.33,-0.89 c 0.11,-0.3 0.22,-0.59 0.32,-0.89 l 0.62,-1.8 0.57,-1.81 q 1.1,-3.63 1.91,-7.32 0.81,-3.69 1.31,-7.45 l 0.23,-1.87 0.19,-1.88 0.09,-0.94 0.07,-0.94 0.12,-1.89 0.08,-1.88 v -0.94 -0.94 c 0,-0.63 0,-1.26 0,-1.89 l -0.05,-1.88 a 89.67,89.67 0 0 0 -5.8,-29.299998 94.28,94.28 0 0 1 4.18,29.309998 v 1.85 c 0,0.61 -0.07,1.23 -0.1,1.84 l -0.05,0.93 -0.07,0.92 -0.15,1.84 -0.2,1.83 -0.11,0.92 -0.13,0.92 -0.25,1.82 -0.31,1.82 c -0.44,2.42 -0.95,4.82 -1.56,7.2 -0.61,2.38 -1.33,4.72 -2.13,7 -0.8,2.28 -1.7,4.59 -2.68,6.83 -0.98,2.24 -2.05,4.45 -3.22,6.59 -1.17,2.14 -2.4,4.25 -3.72,6.3 -1.32,2.05 -2.74,4 -4.22,6 a 92.23,92.23 0 0 1 -9.78,10.83 c -1.76,1.67 -3.61,3.26 -5.5,4.78 -1.89,1.52 -3.84,3 -5.85,4.33 a 88.6,88.6 0 0 1 -12.64,7.18 c -2.19,1 -4.42,2 -6.69,2.82 -2.27,0.82 -4.57,1.6 -6.9,2.26 -2.33,0.66 -4.68,1.23 -7,1.69 -2.32,0.46 -4.75,0.86 -7.15,1.13 -2.4,0.27 -4.81,0.46 -7.23,0.55 -2.42,0.09 -4.83,0.06 -7.24,-0.05 a 91.12,91.12 0 0 1 -28.22,-5.85 c -2.26,-0.86 -4.47,-1.81 -6.65,-2.85 l -0.81,-0.39 -0.81,-0.4 -1.67,-0.73 -1.58,-0.87 c -0.27,-0.14 -0.53,-0.29 -0.79,-0.44 l -0.78,-0.45 c -2.09,-1.21 -4.12,-2.5 -6.11,-3.87 -1.99,-1.37 -3.89,-2.84 -5.76,-4.37 l -0.69,-0.57 c -0.24,-0.19 -0.47,-0.38 -0.69,-0.58 l -1.39,-1.24 -1.34,-1.22 c -0.44,-0.4 -0.87,-0.82 -1.31,-1.24 -1.73,-1.67 -3.4,-3.42 -5,-5.22 -1.6,-1.8 -3.11,-3.68 -4.56,-5.61 -1.45,-1.93 -2.82,-3.91 -4.11,-5.95 -1.29,-2.04 -2.49,-4.12 -3.62,-6.26 l -0.83,-1.6 -0.79,-1.63 c -0.26,-0.54 -0.5,-1.1 -0.76,-1.64 -0.26,-0.54 -0.48,-1.11 -0.72,-1.66 -1,-2.22 -1.82,-4.47 -2.58,-6.76 -0.76,-2.29 -1.44,-4.61 -2,-6.95 a 89.82,89.82 0 0 1 -2.3799997,-28.77 l 0.15,-1.81 0.2,-1.8 c 0.07,-0.6 0.16,-1.2 0.24,-1.8 l 0.12,-0.899998 c 0,-0.3 0.1,-0.6 0.15,-0.9 0.1,-0.59 0.1899997,-1.19 0.2999997,-1.79 l 0.34,-1.78 c 0.11,-0.6 0.25,-1.19 0.38,-1.78 0.13,-0.59 0.26,-1.18 0.4,-1.77 a 89.66,89.66 0 0 1 11.27,-26.72 c 1.29,-2.05 2.66,-4.05 4.11,-6.05 1.45,-2 3,-3.85 4.6,-5.68 0.4,-0.45 0.8,-0.92 1.21,-1.36 l 1.25,-1.35 1.28,-1.29 c 0.21,-0.22 0.43,-0.43 0.65,-0.64 l 0.65,-0.64 q 2.63,-2.55 5.45,-4.9 c 1.88,-1.56 3.83,-3 5.83,-4.45 2,-1.45 4.06,-2.74 6.17,-4 2.11,-1.26 4.25,-2.39 6.46,-3.47 2.21,-1.08 4.46,-2 6.75,-2.95 a 92.31,92.31 0 0 1 14.12,-4.27 94.9,94.9 0 0 1 29.57,-1.63 z"
     id="path5" />
</svg>
